<svg xmlns="http://www.w3.org/2000/svg" id="Layer_1" viewBox="0 0 504 324"><defs><style>.st0{fill:#002f87}</style></defs><g id="New_Logo_x5F_White_on_Blue"><g id="Logo_Updated"><path id="Lower_Bar" d="M206.69 243.25h-88.7l16.27 16.25h72.43zm87.81 0v16.25h73.65l16.27-16.25z" class="st0"/><path id="Upper_Bar" d="m384.69 77.48-16.21-16.24H133.89l-16.23 16.24z" class="st0"/><path d="m229.18 243.27-.02 1.66v12.94l.02 1.66h-4.5l.03-1.66v-12.94l-.03-1.66zm14.33 14.59v-12.94l-.03-1.66h3.7l3.25 7.25h.13v-5.39l-.02-1.86h4.1l-.03 1.66v12.94l.03 1.66h-3.73l-3.22-7.23h-.13v5.37l.02 1.86h-4.1zm29.38-7.77v-1.14c0-1.57 0-2.41-1.02-2.41s-1.03.84-1.03 2.41v4.89c0 1.57 0 2.41 1.03 2.41s1.02-.84 1.02-2.41v-1.25h4.45v.46c0 3.23-.1 6.82-5.47 6.82s-5.48-3.93-5.48-6.89v-3.18c0-2.93.1-6.87 5.48-6.87s5.47 3.57 5.47 6.78v.39h-4.45Z" class="st0"/><path id="Arrows" d="m35.2 160.46 15.7 15.69v-31.39z" class="st0"/><path id="Arrows1" d="m467.2 160.46-15.71 15.69v-31.39z" class="st0" data-name="Arrows"/><path id="Logo_text" d="m126.6 168.8-27.98-28.77c-2.57-2.29-4.1-5.8-4.1-9.4v-.86c0-7.69 5.6-13.71 12.74-13.71S120 122.21 120 129.77v6.48h15.63v-5.62c0-16.16-12.73-29.3-28.37-29.3s-28.37 13.14-28.37 29.3c0 8.3 3.73 16.23 10.17 21.71L117 181.07c2.45 2.45 3.86 5.83 3.86 9.29v.86c0 7.69-5.97 13.71-13.6 13.71s-13.74-6.15-13.74-13.71v-6.86H77.89v6.01c0 16.16 13.18 29.3 29.37 29.3s29.22-13.15 29.22-29.3c0-8.36-3.63-16.24-9.88-21.56Zm298.09-32.7v-5.46c0-16.16-13.68-29.3-29.8-29.3s-29.37 13.14-29.37 29.3v59.73c0 16.16 13.17 29.3 29.37 29.3s29.8-13.15 29.8-29.3v-5.72h-15.62v6.58c0 7.56-6.68 13.71-14.18 13.71s-13.74-6.15-13.74-13.71v-61.44c0-7.56 6.16-13.71 13.74-13.71s14.18 6.15 14.18 13.71v6.32h15.62Zm-252.17-20.46c-12.25 0-22.21 9.94-22.21 22.15v45.44c0 12.22 9.96 22.16 22.21 22.16s22.06-9.94 22.06-22.16v-8.87h-15.62v9.72c0 3.62-2.89 6.57-6.44 6.57s-6.58-3.01-6.58-6.57v-47.15c0-3.56 3.01-6.57 6.58-6.57s6.44 2.95 6.44 6.57v9.72h15.62v-8.87c0-12.22-9.9-22.15-22.06-22.15Zm37.32 88.75h37.54v-14.73h-21.92V167.3h18.34v-14.59h-18.34v-21.34h21.92v-14.73h-37.54zm87.12-42.46-16.91-45.29h-15.32v87.75h15.63v-45.42l16.91 45.42h15.31v-87.75h-15.62zm35.84-45.29h15.62v87.75H332.8z" class="st0"/></g></g></svg>