<?xml version="1.0" encoding="UTF-8"?>
<svg id="Layer_1_copy_2" data-name="Layer 1 copy 2" xmlns="http://www.w3.org/2000/svg" viewBox="0 0 288 288">
  <defs>
    <style>
      .cls-1 {
        fill: #c7c9d4;
      }

      .cls-2 {
        fill: #fff;
      }

      .cls-3, .cls-4, .cls-5 {
        fill: #00308c;
      }

      .cls-3, .cls-6 {
        stroke: #00308c;
        stroke-linecap: round;
        stroke-linejoin: round;
        stroke-width: .86px;
      }

      .cls-7 {
        fill: #f1f1f4;
      }

      .cls-5 {
        font-family: DIN2014-Regular, 'DIN 2014';
        font-size: 11.08px;
      }

      .cls-8 {
        letter-spacing: -.03em;
      }

      .cls-6 {
        fill: none;
      }
    </style>
  </defs>
  <text class="cls-5" transform="translate(106.47 231.65)"><tspan x="0" y="0">IDE</tspan><tspan class="cls-8" x="15.75" y="0">A</tspan><tspan x="21.86" y="0">TE/DESIGN</tspan></text>
  <polygon id="Pad_Shadow" data-name="Pad Shadow" class="cls-7" points="216.11 176.56 133.32 129.07 72.11 164.58 154.89 212.07 216.11 176.56"/>
  <polygon id="Pad_Bottom" data-name="Pad Bottom" class="cls-3" points="216.11 165.63 133.32 118.14 72.11 153.65 154.89 201.14 216.11 165.63"/>
  <g id="Pad_Middle" data-name="Pad Middle">
    <polygon class="cls-2" points="216.11 155.5 133.32 108.01 72.11 143.52 154.89 191.01 216.11 155.5"/>
    <polygon class="cls-6" points="216.11 155.5 133.32 108.01 72.11 143.52 154.89 191.01 216.11 155.5"/>
  </g>
  <g id="Pad_Top" data-name="Pad Top">
    <polygon class="cls-2" points="216.11 145.39 133.32 97.9 72.11 133.41 154.89 180.9 216.11 145.39"/>
    <polygon class="cls-6" points="216.11 145.39 133.32 97.9 72.11 133.41 154.89 180.9 216.11 145.39"/>
    <path class="cls-4" d="M133.32,97.9l-61.22,35.51,11.46,6.57,61.22-35.51-11.46-6.57ZM88.59,132.95c-1.49,0-2.71-.76-2.71-1.7s1.21-1.7,2.71-1.7,2.7.76,2.7,1.7-1.21,1.7-2.7,1.7M130.99,108.43c-1.49,0-2.71-.76-2.71-1.7s1.21-1.7,2.71-1.7,2.71.76,2.71,1.7-1.21,1.7-2.71,1.7"/>
  </g>
  <g id="Bulb_One">
    <path class="cls-1" d="M169.33,146.63l1.44.83c1.2.69,1.16,1.83-.08,2.54l-8.02,4.65c-1.24.72-3.21.74-4.41.06l-1.44-.83,12.51-7.25Z"/>
    <path class="cls-6" d="M169.33,146.63l1.44.83c1.2.69,1.16,1.83-.08,2.54l-8.02,4.65c-1.24.72-3.21.74-4.41.06l-1.44-.83,12.51-7.25Z"/>
    <path class="cls-2" d="M157.87,132.22c4.08,2.34,5.7,5.58,4.89,8.7-.27,1.06.31,2.12,1.59,2.86l1.75,1-12.51,7.25-1.75-1c-1.28-.74-3.11-1.07-4.95-.91-5.42.48-11.05-.43-15.13-2.77-6.97-4-6.76-10.64.47-14.82,7.23-4.18,18.66-4.32,25.63-.32"/>
    <path class="cls-6" d="M157.87,132.22c4.08,2.34,5.7,5.58,4.89,8.7-.27,1.06.31,2.12,1.59,2.86l1.75,1-12.51,7.25-1.75-1c-1.28-.74-3.11-1.07-4.95-.91-5.42.48-11.05-.43-15.13-2.77-6.97-4-6.76-10.64.47-14.82,7.23-4.18,18.66-4.32,25.63-.32Z"/>
    <polygon class="cls-1" points="153.61 152.04 166.11 144.79 169.33 146.63 156.82 153.89 153.61 152.04"/>
    <polygon class="cls-6" points="153.61 152.04 166.11 144.79 169.33 146.63 156.82 153.89 153.61 152.04"/>
    <path class="cls-1" d="M169.52,150.69l.63.36c.76.43,1.12,1.01,1.11,1.59-.02.58-.42,1.17-1.2,1.62-1.56.91-4.06.94-5.57.07l-.63-.36,5.67-3.29Z"/>
    <path class="cls-6" d="M169.52,150.69l.63.36c.76.43,1.12,1.01,1.11,1.59-.02.58-.42,1.17-1.2,1.62-1.56.91-4.06.94-5.57.07l-.63-.36,5.67-3.29Z"/>
    <path class="cls-2" d="M140.91,133.35c.73-.25,3.31-1.08,6.62-.79,2.47.21,4.09.94,4.77,1.28"/>
    <path class="cls-6" d="M140.91,133.35c.73-.25,3.31-1.08,6.62-.79,2.47.21,4.09.94,4.77,1.28"/>
  </g>
  <g id="Pencil">
    <polygon class="cls-4" points="151.4 104.58 145.9 107.77 180.32 155.59 188.4 161.06 185.7 152.24 151.4 104.58"/>
    <path class="cls-2" d="M146.81,105.87l34.54,47.99,8.08,5.47-2.71-8.82-34.79-48.33c-.97-1.35-2.82-1.72-4.24-.84-1.55.97-1.96,3.04-.89,4.53"/>
    <path class="cls-6" d="M146.81,105.87l34.54,47.99,8.08,5.47-2.71-8.82-34.79-48.33c-.97-1.35-2.82-1.72-4.24-.84-1.55.97-1.96,3.04-.89,4.53Z"/>
    <polygon class="cls-1" points="189.44 159.34 188.46 156.15 186.47 157.33 189.44 159.34"/>
    <path class="cls-6" d="M181.18,153.62c.37-1.92,2.06-3.36,4.09-3.36.51,0,1,.09,1.46.26"/>
    <path class="cls-1" d="M151.94,102.18c-.97-1.35-2.82-1.72-4.24-.84-1.55.97-1.96,3.04-.89,4.53l1.54,2.14c1.07-1.89,2.97-3.25,5.2-3.6l-1.61-2.23Z"/>
    <path class="cls-6" d="M155.54,107.17c-.28-.05-.57-.08-.86-.08-2.17,0-3.98,1.53-4.41,3.58"/>
    <path class="cls-6" d="M153.55,104.41c-2.23.35-4.12,1.71-5.2,3.6"/>
    <line class="cls-6" x1="151.93" y1="104.87" x2="153.62" y2="107.22"/>
    <line class="cls-6" x1="150.53" y1="105.63" x2="152.14" y2="107.87"/>
    <line class="cls-6" x1="149.33" y1="106.67" x2="151" y2="108.99"/>
    <path class="cls-6" d="M146.81,105.87l34.54,47.99,8.08,5.47-2.71-8.82-34.79-48.33c-.97-1.35-2.82-1.72-4.24-.84-1.55.97-1.96,3.04-.89,4.53Z"/>
  </g>
</svg>