<?xml version="1.0" encoding="UTF-8"?>
<svg id="Layer_1_copy_2" data-name="Layer 1 copy 2" xmlns="http://www.w3.org/2000/svg" viewBox="0 0 288 288">
  <defs>
    <style>
      .cls-1 {
        fill: #c7c9d4;
      }

      .cls-2 {
        fill: #fff;
      }

      .cls-3, .cls-4, .cls-5 {
        fill: #00308c;
      }

      .cls-3, .cls-6 {
        stroke: #00308c;
        stroke-linecap: round;
        stroke-linejoin: round;
        stroke-width: .86px;
      }

      .cls-7 {
        fill: #f1f1f4;
      }

      .cls-5 {
        font-family: DIN2014-Regular, 'DIN 2014';
        font-size: 11.08px;
      }

      .cls-8 {
        letter-spacing: -.03em;
      }

      .cls-6 {
        fill: none;
      }
    </style>
  </defs>
  <text class="cls-5" transform="translate(106.47 231.65)"><tspan x="0" y="0">IDE</tspan><tspan class="cls-8" x="15.75" y="0">A</tspan><tspan x="21.86" y="0">TE/DESIGN</tspan></text>
  <polygon id="Pad_Shadow" data-name="Pad Shadow" class="cls-7" points="216.11 176.56 133.32 129.07 72.11 164.58 154.89 212.07 216.11 176.56"/>
  <polygon id="Pad_Bottom" data-name="Pad Bottom" class="cls-3" points="216.11 166.63142857142856 133.32 119.14142857142858 72.11 154.65 154.89 202.14142857142855 216.11 166.63142857142856"/>
  <g id="Pad_Middle" data-name="Pad Middle">
    <polygon class="cls-2" points="216.11 157.21571428571428 133.32 109.72571428571429 72.11 145.2357142857143 154.89 192.72571428571428 216.11 157.21571428571428"/>
    <polygon class="cls-6" points="216.11 157.21571428571428 133.32 109.72571428571429 72.11 145.2357142857143 154.89 192.72571428571428 216.11 157.21571428571428"/>
  </g>
  <g id="Pad_Top" data-name="Pad Top">
    <polygon class="cls-2" points="216.11 147.67857142857142 133.32 100.18714285714286 72.11 135.69714285714286 154.89 183.18857142857144 216.11 147.67857142857142"/>
    <polygon class="cls-6" points="216.11 147.67857142857142 133.32 100.18714285714286 72.11 135.69714285714286 154.89 183.18857142857144 216.11 147.67857142857142"/>
    <path class="cls-4" d="M133.32,100.19l-61.22,35.51 11.46,6.57 61.22,-35.51 -11.46,-6.57ZM88.59,135.24c-1.49,0.00,-2.71,-0.76,-2.71,-1.70s1.21,-1.70,2.71,-1.70 2.70,0.76,2.70,1.70 -1.21,1.70,-2.70,1.70M130.99,110.72c-1.49,0.00,-2.71,-0.76,-2.71,-1.70s1.21,-1.70,2.71,-1.70 2.71,0.76,2.71,1.70 -1.21,1.70,-2.71,1.70"/>
  </g>
  <g id="Bulb_One" opacity="1.00" transform="translate(-1.79, -3.80) scale(1.04)">
    <path class="cls-1" d="M169.33,146.63l1.44.83c1.2.69,1.16,1.83-.08,2.54l-8.02,4.65c-1.24.72-3.21.74-4.41.06l-1.44-.83,12.51-7.25Z"/>
    <path class="cls-6" d="M169.33,146.63l1.44.83c1.2.69,1.16,1.83-.08,2.54l-8.02,4.65c-1.24.72-3.21.74-4.41.06l-1.44-.83,12.51-7.25Z"/>
    <path class="cls-2" d="M157.87,132.22c4.08,2.34,5.7,5.58,4.89,8.7-.27,1.06.31,2.12,1.59,2.86l1.75,1-12.51,7.25-1.75-1c-1.28-.74-3.11-1.07-4.95-.91-5.42.48-11.05-.43-15.13-2.77-6.97-4-6.76-10.64.47-14.82,7.23-4.18,18.66-4.32,25.63-.32"/>
    <path class="cls-6" d="M157.87,132.22c4.08,2.34,5.7,5.58,4.89,8.7-.27,1.06.31,2.12,1.59,2.86l1.75,1-12.51,7.25-1.75-1c-1.28-.74-3.11-1.07-4.95-.91-5.42.48-11.05-.43-15.13-2.77-6.97-4-6.76-10.64.47-14.82,7.23-4.18,18.66-4.32,25.63-.32Z"/>
    <polygon class="cls-1" points="153.61 152.04 166.11 144.79 169.33 146.63 156.82 153.89 153.61 152.04"/>
    <polygon class="cls-6" points="153.61 152.04 166.11 144.79 169.33 146.63 156.82 153.89 153.61 152.04"/>
    <path class="cls-1" d="M169.52,150.69l.63.36c.76.43,1.12,1.01,1.11,1.59-.02.58-.42,1.17-1.2,1.62-1.56.91-4.06.94-5.57.07l-.63-.36,5.67-3.29Z"/>
    <path class="cls-6" d="M169.52,150.69l.63.36c.76.43,1.12,1.01,1.11,1.59-.02.58-.42,1.17-1.2,1.62-1.56.91-4.06.94-5.57.07l-.63-.36,5.67-3.29Z"/>
    <path class="cls-2" d="M140.91,133.35c.73-.25,3.31-1.08,6.62-.79,2.47.21,4.09.94,4.77,1.28"/>
    <path class="cls-6" d="M140.91,133.35c.73-.25,3.31-1.08,6.62-.79,2.47.21,4.09.94,4.77,1.28"/>
  </g>
  <g id="Pencil">
    <polygon class="cls-4" points="144.53285714285715 109.03428571428572 139.03428571428572 112.22428571428571 173.4542857142857 160.04285714285714 181.53428571428572 165.5142857142857 178.83285714285714 156.69285714285715 144.53285714285715 109.03428571428572"/>
    <path class="cls-2" d="M139.94,110.32l34.54,47.99 8.08,5.47 -2.71,-8.82 -34.79,-48.33c-0.97,-1.35,-2.82,-1.72,-4.24,-0.84 -1.55,0.97,-1.96,3.04,-0.89,4.53"/>
    <path class="cls-6" d="M139.94,110.32l34.54,47.99 8.08,5.47 -2.71,-8.82 -34.79,-48.33c-0.97,-1.35,-2.82,-1.72,-4.24,-0.84 -1.55,0.97,-1.96,3.04,-0.89,4.53Z"/>
    
    <path class="cls-6" d="M174.31,158.07c0.37,-1.92,2.06,-3.36,4.09,-3.36 0.51,0.00,1.00,0.09,1.46,0.26"/>
    
    <path class="cls-6" d="M148.67,111.62c-0.28,-0.05,-0.57,-0.08,-0.86,-0.08 -2.17,0.00,-3.98,1.53,-4.41,3.58"/>
    <path class="cls-6" d="M146.68,108.86c-2.23,0.35,-4.12,1.71,-5.20,3.60"/>
    <line class="cls-6" x1="145.06" y1="109.32" x2="146.75" y2="111.67"/>
    <line class="cls-6" x1="143.66" y1="110.08" x2="145.27" y2="112.32"/>
    <line class="cls-6" x1="142.46" y1="111.12" x2="144.13" y2="113.44"/>
    <path class="cls-6" d="M139.94,110.32l34.54,47.99 8.08,5.47 -2.71,-8.82 -34.79,-48.33c-0.97,-1.35,-2.82,-1.72,-4.24,-0.84 -1.55,0.97,-1.96,3.04,-0.89,4.53Z"/>
  <polygon class="cls-1" points="182.57285714285715 163.7942857142857 181.59428571428572 160.60285714285715 179.6042857142857 161.78428571428572 182.57285714285715 163.7942857142857"/><path class="cls-1" d="M145.07,106.63c-0.97,-1.35,-2.82,-1.72,-4.24,-0.84 -1.55,0.97,-1.96,3.04,-0.89,4.53l1.54,2.14c1.07,-1.89,2.97,-3.25,5.20,-3.60l-1.61,-2.23Z"/></g>
</svg>