<?xml version="1.0" encoding="UTF-8"?>
<svg id="Layer_1_copy_2" data-name="Layer 1 copy 2" xmlns="http://www.w3.org/2000/svg" viewBox="0 0 288 288">
  <defs>
    <style>
      .cls-1 {
        fill: #c7c9d4;
      }

      .cls-2 {
        fill: #fff;
      }

      .cls-3, .cls-4, .cls-5 {
        fill: #00308c;
      }

      .cls-3, .cls-6 {
        stroke: #00308c;
        stroke-linecap: round;
        stroke-linejoin: round;
        stroke-width: .86px;
      }

      .cls-7 {
        fill: #f1f1f4;
      }

      .cls-5 {
        font-family: DIN2014-Regular, 'DIN 2014';
        font-size: 11.08px;
      }

      .cls-8 {
        letter-spacing: -.03em;
      }

      .cls-6 {
        fill: none;
      }
    </style>
  </defs>
  <text class="cls-5" transform="translate(106.47 231.65)"><tspan x="0" y="0">IDE</tspan><tspan class="cls-8" x="15.75" y="0">A</tspan><tspan x="21.86" y="0">TE/DESIGN</tspan></text>
  <polygon id="Pad_Shadow" data-name="Pad Shadow" class="cls-7" points="216.11 176.56 133.32 129.07 72.11 164.58 154.89 212.07 216.11 176.56"/>
  <polygon id="Pad_Bottom" data-name="Pad Bottom" class="cls-3" points="216.11 170.7281818181818 133.32 123.23818181818183 72.11 158.7409090909091 154.89 206.23818181818183 216.11 170.7281818181818"/>
  <g id="Pad_Middle" data-name="Pad Middle">
    <polygon class="cls-2" points="216.11 164.23454545454544 133.32 116.74454545454546 72.11 152.25454545454545 154.89 199.74454545454546 216.11 164.23454545454544"/>
    <polygon class="cls-6" points="216.11 164.23454545454544 133.32 116.74454545454546 72.11 152.25454545454545 154.89 199.74454545454546 216.11 164.23454545454544"/>
  </g>
  <g id="Pad_Top" data-name="Pad Top">
    <polygon class="cls-2" points="216.11 157.04090909090908 133.32 109.54363636363637 72.11 145.05363636363634 154.89 192.55090909090907 216.11 157.04090909090908"/>
    <polygon class="cls-6" points="216.11 157.04090909090908 133.32 109.54363636363637 72.11 145.05363636363634 154.89 192.55090909090907 216.11 157.04090909090908"/>
    <path class="cls-4" d="M133.32,109.54l-61.22,35.51 11.46,6.57 61.22,-35.51 -11.46,-6.57ZM88.59,144.59c-1.49,0.00,-2.71,-0.76,-2.71,-1.70s1.21,-1.70,2.71,-1.70 2.70,0.76,2.70,1.70 -1.21,1.70,-2.70,1.70M130.99,120.07c-1.49,0.00,-2.71,-0.76,-2.71,-1.70s1.21,-1.70,2.71,-1.70 2.71,0.76,2.71,1.70 -1.21,1.70,-2.71,1.70"/>
  </g>
  <g id="Bulb_One" opacity="0.27" transform="translate(-9.09, -19.32)">
    <path class="cls-1" d="M169.33,146.63l1.44.83c1.2.69,1.16,1.83-.08,2.54l-8.02,4.65c-1.24.72-3.21.74-4.41.06l-1.44-.83,12.51-7.25Z"/>
    <path class="cls-6" d="M169.33,146.63l1.44.83c1.2.69,1.16,1.83-.08,2.54l-8.02,4.65c-1.24.72-3.21.74-4.41.06l-1.44-.83,12.51-7.25Z"/>
    <path class="cls-2" d="M157.87,132.22c4.08,2.34,5.7,5.58,4.89,8.7-.27,1.06.31,2.12,1.59,2.86l1.75,1-12.51,7.25-1.75-1c-1.28-.74-3.11-1.07-4.95-.91-5.42.48-11.05-.43-15.13-2.77-6.97-4-6.76-10.64.47-14.82,7.23-4.18,18.66-4.32,25.63-.32"/>
    <path class="cls-6" d="M157.87,132.22c4.08,2.34,5.7,5.58,4.89,8.7-.27,1.06.31,2.12,1.59,2.86l1.75,1-12.51,7.25-1.75-1c-1.28-.74-3.11-1.07-4.95-.91-5.42.48-11.05-.43-15.13-2.77-6.97-4-6.76-10.64.47-14.82,7.23-4.18,18.66-4.32,25.63-.32Z"/>
    <polygon class="cls-1" points="153.61 152.04 166.11 144.79 169.33 146.63 156.82 153.89 153.61 152.04"/>
    <polygon class="cls-6" points="153.61 152.04 166.11 144.79 169.33 146.63 156.82 153.89 153.61 152.04"/>
    <path class="cls-1" d="M169.52,150.69l.63.36c.76.43,1.12,1.01,1.11,1.59-.02.58-.42,1.17-1.2,1.62-1.56.91-4.06.94-5.57.07l-.63-.36,5.67-3.29Z"/>
    <path class="cls-6" d="M169.52,150.69l.63.36c.76.43,1.12,1.01,1.11,1.59-.02.58-.42,1.17-1.2,1.62-1.56.91-4.06.94-5.57.07l-.63-.36,5.67-3.29Z"/>
    <path class="cls-2" d="M140.91,133.35c.73-.25,3.31-1.08,6.62-.79,2.47.21,4.09.94,4.77,1.28"/>
    <path class="cls-6" d="M140.91,133.35c.73-.25,3.31-1.08,6.62-.79,2.47.21,4.09.94,4.77,1.28"/>
  </g><g id="Bulb_Two" xmlns="http://www.w3.org/2000/svg" opacity="0.73">
    <g class="cls-12">
      <circle class="cls-4" cx="144.5" cy="156.25" r="4.53"/>
    </g>
    <path class="cls-5" d="M167.43,115.43c0-13.12-10.95-23.69-24.22-23.06-11.29.54-20.75,9.5-21.84,20.76-.92,9.45,3.88,17.85,11.33,22.21.82.48,1.29,1.38,1.29,2.33v14.86c0,1.9,1.54,3.45,3.45,3.45h14.16c1.95,0,3.53-1.58,3.53-3.53v-14.76c0-1.08.52-2.1,1.43-2.67,6.52-4.08,10.87-11.32,10.87-19.58Z"/>
    <rect class="cls-4" x="133.98" y="144.81" width="21.14" height="5.57"/>
    <path class="cls-4" d="M133.98,150.39h21.14v3.49c0,1.15-.93,2.08-2.08,2.08h-17c-1.14,0-2.06-.92-2.06-2.06v-3.51h0Z"/>
    <path class="cls-2" d="M149.15,98.32c4.95,1.46,8.99,5.04,11.06,9.69"/>
  </g>
  <g id="Pencil">
    <polygon class="cls-4" points="116.44 127.25636363636363 110.94727272727273 130.44636363636363 145.36727272727273 178.2590909090909 153.44727272727272 183.73636363636365 150.74 174.9090909090909 116.44 127.25636363636363"/>
    <path class="cls-2" d="M111.86,128.55l34.54,47.99 8.08,5.47 -2.71,-8.82 -34.79,-48.33c-0.97,-1.35,-2.82,-1.72,-4.24,-0.84 -1.55,0.97,-1.96,3.04,-0.89,4.53"/>
    <path class="cls-6" d="M111.86,128.55l34.54,47.99 8.08,5.47 -2.71,-8.82 -34.79,-48.33c-0.97,-1.35,-2.82,-1.72,-4.24,-0.84 -1.55,0.97,-1.96,3.04,-0.89,4.53Z"/>
    
    <path class="cls-6" d="M146.23,176.30c0.37,-1.92,2.06,-3.36,4.09,-3.36 0.51,0.00,1.00,0.09,1.46,0.26"/>
    
    <path class="cls-6" d="M120.58,129.85c-0.28,-0.05,-0.57,-0.08,-0.86,-0.08 -2.17,0.00,-3.98,1.53,-4.41,3.58"/>
    <path class="cls-6" d="M118.60,127.09c-2.23,0.35,-4.12,1.71,-5.20,3.60"/>
    <line class="cls-6" x1="116.97" y1="127.54" x2="118.66" y2="129.89"/>
    <line class="cls-6" x1="115.58" y1="128.31" x2="117.19" y2="130.55"/>
    <line class="cls-6" x1="114.38" y1="129.35" x2="116.05" y2="131.67"/>
    <path class="cls-6" d="M111.86,128.55l34.54,47.99 8.08,5.47 -2.71,-8.82 -34.79,-48.33c-0.97,-1.35,-2.82,-1.72,-4.24,-0.84 -1.55,0.97,-1.96,3.04,-0.89,4.53Z"/>
  <polygon class="cls-1" points="154.48000000000002 182.01636363636365 153.50727272727272 178.8190909090909 151.5172727272727 180.00636363636363 154.48000000000002 182.01636363636365"/><path class="cls-1" d="M116.99,124.86c-0.97,-1.35,-2.82,-1.72,-4.24,-0.84 -1.55,0.97,-1.96,3.04,-0.89,4.53l1.54,2.14c1.07,-1.89,2.97,-3.25,5.20,-3.60l-1.61,-2.23Z"/></g>
</svg>