<?xml version="1.0" encoding="UTF-8"?>
<svg id="Layer_1_copy_3" data-name="Layer 1 copy 3" xmlns="http://www.w3.org/2000/svg" xmlns:xlink="http://www.w3.org/1999/xlink" viewBox="0 0 288 288">
  <defs>
    <style>
      .cls-1, .cls-2 {
        fill: none;
      }

      .cls-3, .cls-4 {
        fill: #c7c9d4;
      }

      .cls-5, .cls-4, .cls-6, .cls-2 {
        stroke: #00308c;
      }

      .cls-5, .cls-7 {
        fill: #fff;
      }

      .cls-5, .cls-6, .cls-2 {
        stroke-linecap: round;
        stroke-linejoin: round;
        stroke-width: .86px;
      }

      .cls-4 {
        stroke-miterlimit: 10;
        stroke-width: .75px;
      }

      .cls-6, .cls-8, .cls-9 {
        fill: #00308c;
      }

      .cls-10 {
        fill: #f1f1f4;
      }

      .cls-9 {
        font-family: DIN2014-Regular, 'DIN 2014';
        font-size: 11.08px;
      }

      .cls-11 {
        letter-spacing: -.03em;
      }

      .cls-12 {
        clip-path: url(#clippath);
      }
    </style>
    <clipPath id="clippath">
      <rect class="cls-1" x="137.25" y="155.72" width="15.36" height="6.19"/>
    </clipPath>
  </defs>
  <text class="cls-9" transform="translate(106.47 231.65)"><tspan x="0" y="0">IDE</tspan><tspan class="cls-11" x="15.75" y="0">A</tspan><tspan x="21.86" y="0">TE/DESIGN</tspan></text>
  <polygon id="Pad_Shadow" data-name="Pad Shadow" class="cls-10" points="216.11 176.56 133.32 129.07 72.11 164.58 154.89 212.07 216.11 176.56"/>
  <polygon id="Pad_Bottom" data-name="Pad Bottom" class="cls-6" points="216.11 172.64 133.32 125.15 72.11 160.65 154.89 208.15 216.11 172.64"/>
  <g id="Pad_Middle" data-name="Pad Middle">
    <polygon class="cls-7" points="216.11 167.51 133.32 120.02 72.11 155.53 154.89 203.02 216.11 167.51"/>
    <polygon class="cls-2" points="216.11 167.51 133.32 120.02 72.11 155.53 154.89 203.02 216.11 167.51"/>
  </g>
  <g id="Pad_Top" data-name="Pad Top">
    <polygon class="cls-7" points="216.11 161.41 133.32 113.91 72.11 149.42 154.89 196.92 216.11 161.41"/>
    <polygon class="cls-2" points="216.11 161.41 133.32 113.91 72.11 149.42 154.89 196.92 216.11 161.41"/>
    <path class="cls-8" d="M133.32,113.91l-61.22,35.51,11.46,6.57,61.22-35.51-11.46-6.57ZM88.59,148.96c-1.49,0-2.71-.76-2.71-1.7s1.21-1.7,2.71-1.7,2.7.76,2.7,1.7-1.21,1.7-2.7,1.7M130.99,124.44c-1.49,0-2.71-.76-2.71-1.7s1.21-1.7,2.71-1.7,2.71.76,2.71,1.7-1.21,1.7-2.71,1.7"/>
  </g>
  <g id="Beam" xmlns="http://www.w3.org/2000/svg">
    <line class="cls-5" x1="144.07" y1="99.88" x2="144.07" y2="92.30"/>
    <line class="cls-5" x1="136.95" y1="101.30" x2="134.05" y2="94.29"/>
    <line class="cls-5" x1="130.93" y1="105.33" x2="125.57" y2="99.96"/>
    <line class="cls-5" x1="126.90" y1="111.35" x2="119.89" y2="108.45"/>
    <line class="cls-5" x1="168.25" y1="128.48" x2="161.24" y2="125.58"/>
    <line class="cls-5" x1="125.48" y1="118.47" x2="117.90" y2="118.47"/>
    <line class="cls-5" x1="170.24" y1="118.47" x2="162.65" y2="118.47"/>
    <line class="cls-5" x1="126.90" y1="125.58" x2="119.89" y2="128.48"/>
    <line class="cls-5" x1="168.25" y1="108.45" x2="161.24" y2="111.35"/>
    <line class="cls-5" x1="162.57" y1="99.96" x2="157.21" y2="105.33"/>
    <line class="cls-5" x1="154.08" y1="94.29" x2="151.18" y2="101.30"/>
  </g><g id="Pencil">
    <polygon class="cls-8" points="103.33 135.76 97.84 138.95 132.26 186.76 140.34 192.24 137.63 183.41 103.33 135.76"/>
    <path class="cls-7" d="M98.75,137.05l34.54,47.99,8.08,5.47-2.71-8.82-34.79-48.33c-.97-1.35-2.82-1.72-4.24-.84-1.55.97-1.96,3.04-.89,4.53"/>
    <path class="cls-2" d="M98.75,137.05l34.54,47.99,8.08,5.47-2.71-8.82-34.79-48.33c-.97-1.35-2.82-1.72-4.24-.84-1.55.97-1.96,3.04-.89,4.53Z"/>
    <polygon class="cls-3" points="141.37 190.52 140.4 187.32 138.41 188.51 141.37 190.52"/>
    <path class="cls-2" d="M133.12,184.8c.37-1.92,2.06-3.36,4.09-3.36.51,0,1,.09,1.46.26"/>
    <path class="cls-3" d="M103.88,133.36c-.97-1.35-2.82-1.72-4.24-.84-1.55.97-1.96,3.04-.89,4.53l1.54,2.14c1.07-1.89,2.97-3.25,5.2-3.6l-1.61-2.23Z"/>
    <path class="cls-2" d="M107.47,138.35c-.28-.05-.57-.08-.86-.08-2.17,0-3.98,1.53-4.41,3.58"/>
    <path class="cls-2" d="M105.49,135.59c-2.23.35-4.12,1.71-5.2,3.6"/>
    <line class="cls-2" x1="103.86" y1="136.04" x2="105.55" y2="138.39"/>
    <line class="cls-2" x1="102.47" y1="136.81" x2="104.08" y2="139.05"/>
    <line class="cls-2" x1="101.27" y1="137.85" x2="102.94" y2="140.17"/>
    <path class="cls-2" d="M98.75,137.05l34.54,47.99,8.08,5.47-2.71-8.82-34.79-48.33c-.97-1.35-2.82-1.72-4.24-.84-1.55.97-1.96,3.04-.89,4.53Z"/>
  </g>
  <g id="Bulb_Two">
    <g class="cls-12">
      <circle class="cls-4" cx="144.5" cy="156.25" r="4.53"/>
    </g>
    <path class="cls-5" d="M167.43,115.43c0-13.12-10.95-23.69-24.22-23.06-11.29.54-20.75,9.5-21.84,20.76-.92,9.45,3.88,17.85,11.33,22.21.82.48,1.29,1.38,1.29,2.33v14.86c0,1.9,1.54,3.45,3.45,3.45h14.16c1.95,0,3.53-1.58,3.53-3.53v-14.76c0-1.08.52-2.1,1.43-2.67,6.52-4.08,10.87-11.32,10.87-19.58Z"/>
    <rect class="cls-4" x="133.98" y="144.81" width="21.14" height="5.57"/>
    <path class="cls-4" d="M133.98,150.39h21.14v3.49c0,1.15-.93,2.08-2.08,2.08h-17c-1.14,0-2.06-.92-2.06-2.06v-3.51h0Z"/>
    <path class="cls-2" d="M149.15,98.32c4.95,1.46,8.99,5.04,11.06,9.69"/>
  </g>
</svg>