<?xml version="1.0" encoding="UTF-8"?>
<svg id="Layer_1_copy_2" data-name="Layer 1 copy 2" xmlns="http://www.w3.org/2000/svg" viewBox="0 0 288 288">
  <defs>
    <style>
      .cls-1 {
        fill: #c7c9d4;
      }

      .cls-2 {
        fill: #fff;
      }

      .cls-3, .cls-4, .cls-5 {
        fill: #00308c;
      }

      .cls-3, .cls-6 {
        stroke: #00308c;
        stroke-linecap: round;
        stroke-linejoin: round;
        stroke-width: .86px;
      }

      .cls-7 {
        fill: #f1f1f4;
      }

      .cls-5 {
        font-family: DIN2014-Regular, 'DIN 2014';
        font-size: 11.08px;
      }

      .cls-8 {
        letter-spacing: -.03em;
      }

      .cls-6 {
        fill: none;
      }
    </style>
  </defs>
  <text class="cls-5" transform="translate(106.47 231.65)"><tspan x="0" y="0">IDE</tspan><tspan class="cls-8" x="15.75" y="0">A</tspan><tspan x="21.86" y="0">TE/DESIGN</tspan></text>
  <polygon id="Pad_Shadow" data-name="Pad Shadow" class="cls-7" points="216.11 176.56 133.32 129.07 72.11 164.58 154.89 212.07 216.11 176.56"/>
  <polygon id="Pad_Bottom" data-name="Pad Bottom" class="cls-3" points="216.11 166.29761904761904 133.32 118.80761904761904 72.11 154.31666666666666 154.89 201.80761904761903 216.11 166.29761904761904"/>
  <g id="Pad_Middle" data-name="Pad Middle">
    <polygon class="cls-2" points="216.11 156.64380952380952 133.32 109.15380952380953 72.11 144.66380952380953 154.89 192.1538095238095 216.11 156.64380952380952"/>
    <polygon class="cls-6" points="216.11 156.64380952380952 133.32 109.15380952380953 72.11 144.66380952380953 154.89 192.1538095238095 216.11 156.64380952380952"/>
  </g>
  <g id="Pad_Top" data-name="Pad Top">
    <polygon class="cls-2" points="216.11 146.91571428571427 133.32 99.42476190476191 72.11 134.9347619047619 154.89 182.4257142857143 216.11 146.91571428571427"/>
    <polygon class="cls-6" points="216.11 146.91571428571427 133.32 99.42476190476191 72.11 134.9347619047619 154.89 182.4257142857143 216.11 146.91571428571427"/>
    <path class="cls-4" d="M133.32,99.42l-61.22,35.51 11.46,6.57 61.22,-35.51 -11.46,-6.57ZM88.59,134.47c-1.49,0.00,-2.71,-0.76,-2.71,-1.70s1.21,-1.70,2.71,-1.70 2.70,0.76,2.70,1.70 -1.21,1.70,-2.70,1.70M130.99,109.95c-1.49,0.00,-2.71,-0.76,-2.71,-1.70s1.21,-1.70,2.71,-1.70 2.71,0.76,2.71,1.70 -1.21,1.70,-2.71,1.70"/>
  </g>
  <g id="Bulb_One" opacity="1.00" transform="translate(-1.19, -2.53) scale(1.03)">
    <path class="cls-1" d="M169.33,146.63l1.44.83c1.2.69,1.16,1.83-.08,2.54l-8.02,4.65c-1.24.72-3.21.74-4.41.06l-1.44-.83,12.51-7.25Z"/>
    <path class="cls-6" d="M169.33,146.63l1.44.83c1.2.69,1.16,1.83-.08,2.54l-8.02,4.65c-1.24.72-3.21.74-4.41.06l-1.44-.83,12.51-7.25Z"/>
    <path class="cls-2" d="M157.87,132.22c4.08,2.34,5.7,5.58,4.89,8.7-.27,1.06.31,2.12,1.59,2.86l1.75,1-12.51,7.25-1.75-1c-1.28-.74-3.11-1.07-4.95-.91-5.42.48-11.05-.43-15.13-2.77-6.97-4-6.76-10.64.47-14.82,7.23-4.18,18.66-4.32,25.63-.32"/>
    <path class="cls-6" d="M157.87,132.22c4.08,2.34,5.7,5.58,4.89,8.7-.27,1.06.31,2.12,1.59,2.86l1.75,1-12.51,7.25-1.75-1c-1.28-.74-3.11-1.07-4.95-.91-5.42.48-11.05-.43-15.13-2.77-6.97-4-6.76-10.64.47-14.82,7.23-4.18,18.66-4.32,25.63-.32Z"/>
    <polygon class="cls-1" points="153.61 152.04 166.11 144.79 169.33 146.63 156.82 153.89 153.61 152.04"/>
    <polygon class="cls-6" points="153.61 152.04 166.11 144.79 169.33 146.63 156.82 153.89 153.61 152.04"/>
    <path class="cls-1" d="M169.52,150.69l.63.36c.76.43,1.12,1.01,1.11,1.59-.02.58-.42,1.17-1.2,1.62-1.56.91-4.06.94-5.57.07l-.63-.36,5.67-3.29Z"/>
    <path class="cls-6" d="M169.52,150.69l.63.36c.76.43,1.12,1.01,1.11,1.59-.02.58-.42,1.17-1.2,1.62-1.56.91-4.06.94-5.57.07l-.63-.36,5.67-3.29Z"/>
    <path class="cls-2" d="M140.91,133.35c.73-.25,3.31-1.08,6.62-.79,2.47.21,4.09.94,4.77,1.28"/>
    <path class="cls-6" d="M140.91,133.35c.73-.25,3.31-1.08,6.62-.79,2.47.21,4.09.94,4.77,1.28"/>
  </g>
  <g id="Pencil">
    <polygon class="cls-4" points="146.82190476190476 107.5495238095238 141.32285714285715 110.7395238095238 175.74285714285713 158.55857142857144 183.82285714285715 164.02952380952382 181.12190476190474 155.20857142857145 146.82190476190476 107.5495238095238"/>
    <path class="cls-2" d="M142.23,108.84l34.54,47.99 8.08,5.47 -2.71,-8.82 -34.79,-48.33c-0.97,-1.35,-2.82,-1.72,-4.24,-0.84 -1.55,0.97,-1.96,3.04,-0.89,4.53"/>
    <path class="cls-6" d="M142.23,108.84l34.54,47.99 8.08,5.47 -2.71,-8.82 -34.79,-48.33c-0.97,-1.35,-2.82,-1.72,-4.24,-0.84 -1.55,0.97,-1.96,3.04,-0.89,4.53Z"/>
    
    <path class="cls-6" d="M176.60,156.59c0.37,-1.92,2.06,-3.36,4.09,-3.36 0.51,0.00,1.00,0.09,1.46,0.26"/>
    
    <path class="cls-6" d="M150.96,110.14c-0.28,-0.05,-0.57,-0.08,-0.86,-0.08 -2.17,0.00,-3.98,1.53,-4.41,3.58"/>
    <path class="cls-6" d="M148.97,107.38c-2.23,0.35,-4.12,1.71,-5.20,3.60"/>
    <line class="cls-6" x1="147.35" y1="107.84" x2="149.04" y2="110.19"/>
    <line class="cls-6" x1="145.95" y1="108.60" x2="147.56" y2="110.84"/>
    <line class="cls-6" x1="144.75" y1="109.64" x2="146.42" y2="111.96"/>
    <path class="cls-6" d="M142.23,108.84l34.54,47.99 8.08,5.47 -2.71,-8.82 -34.79,-48.33c-0.97,-1.35,-2.82,-1.72,-4.24,-0.84 -1.55,0.97,-1.96,3.04,-0.89,4.53Z"/>
  <polygon class="cls-1" points="184.86190476190475 162.30952380952382 183.88285714285715 159.11857142857144 181.89285714285714 160.29952380952383 184.86190476190475 162.30952380952382"/><path class="cls-1" d="M147.36,105.15c-0.97,-1.35,-2.82,-1.72,-4.24,-0.84 -1.55,0.97,-1.96,3.04,-0.89,4.53l1.54,2.14c1.07,-1.89,2.97,-3.25,5.20,-3.60l-1.61,-2.23Z"/></g>
</svg>