<svg xmlns="http://www.w3.org/2000/svg" id="Layer_1" viewBox="0 0 335 335"><defs><clipPath id="clippath"><path d="M0 0h335v335H0z" class="st0"/></clipPath><clipPath id="clippath-1"><path d="M0-365.72h335v335H0z" class="st0"/></clipPath><style>.st0{fill:none}.st1{fill:#ee3d33}.st3{fill:#34cbc2}.st4{fill:#00308c}.st5{fill:#fac813}.st6{fill:#12aee7}.st8{fill:#600040}</style></defs><g id="block_F" style="clip-path:url(#clippath)"><path d="M0 0h128.26v259.34H0z"/><path d="M0 169.72h128.26v89.62H0z" class="st4"/><path d="M0 258.81h128.26V335H0zm128.26.04h94.5V335h-94.5z" class="st4"/><path d="M128.26 94.74h94.5v164.11h-94.5z" class="st5"/><path d="M220.79 335v-75.66L145.13 335z" class="st6"/><path d="M282.25 258.85c0 33.94-27.51 61.46-61.46 61.46s-61.46-27.51-61.46-61.46h122.91Z" class="st3"/><path d="M220.79 259.34h90.43V335h-90.43z"/><path d="M296.95 259.34H335V335h-38.05z" class="st8"/><path d="M335 324.81v-65.95H220.79c0 41.96 33.94 75.99 75.86 76.15h.58a75.7 75.7 0 0 0 37.76-10.19Z" class="st3"/><path d="M297.24 335A75.7 75.7 0 0 0 335 324.81v-65.95h-38.05v76.15h.29Z" class="st8"/><path d="M296.95 296.93c21.03 0 38.08-17.05 38.08-38.08h-76.15c0 21.03 17.05 38.08 38.08 38.08Z"/><path d="M296.95 296.93c21.03 0 38.08-17.05 38.08-38.08h-38.08z" class="st1"/><path d="M220.92 42.91v-92.9c0-25.59-20.74-46.33-46.33-46.33s-46.33 20.74-46.33 46.33v92.9z" class="st5"/><path d="M220.79-170.83V94.74H335V-335h-19.73c-55.42 33.72-92.51 94.69-94.48 164.17"/><path d="M220.79 94.74V0c1.97-26.1-19.19-47.25-45.28-47.25S128.26-26.1 128.26 0v94.74z" class="st1"/><path d="M220.79 94.74h47.18v164.13h-47.18z"/><path d="M335-214.31c-44.66 18.66-76.13 62.79-76.13 114.13v220.42H335z" class="st6"/><path d="M335-214.31c-44.66 18.66-76.13 62.79-76.13 114.13v164c19.78 23.27 46.11 40.79 76.13 49.75z" class="st1"/><path d="M335-171.29c-22.93 15.36-38.05 41.5-38.05 71.11v220.42H335z" class="st8"/><path d="M335-171.29c-22.93 15.36-38.05 41.5-38.05 71.11V96.51A159.7 159.7 0 0 0 335 113.56z" class="st8"/><path d="M296.95 258.86h-38.08V120.25h38.08z" class="st6"/><path d="M296.95 120.24h38.08v138.61h-38.08z" class="st8"/><path d="M161.31 258.87h59.48V94.74z" class="st6"/><path d="M128.26 258.85v-25.01c0-35.42-28.71-64.13-64.13-64.13S0 198.43 0 233.85v25.01h128.26Zm-64.13-174 63.25-31.27C122.35 23.18 95.96-.01 64.13-.01S5.91 23.18.88 53.58zm0 0 63.25 31.27c-5.03 30.4-31.43 53.59-63.25 53.59S5.91 146.53.88 116.13l63.25-31.27Z" class="st1"/></g><g id="block_C" style="clip-path:url(#clippath-1)"><path d="M220.92 12.19v-92.9c0-25.59-20.74-46.33-46.33-46.33s-46.33 20.74-46.33 46.33v92.9z" class="st5"/><path d="M220.79-201.55V64.03H335v-429.74h-19.73c-55.42 33.72-92.51 94.69-94.48 164.17Z"/><path d="M220.79 64.03v-94.75c1.97-26.1-19.19-47.25-45.28-47.25s-47.25 21.16-47.25 47.25v94.74h92.53Z" class="st1"/><path d="M335-245.03c-44.66 18.66-76.13 62.79-76.13 114.13V89.53H335z" class="st6"/><path d="M335-245.03c-44.66 18.66-76.13 62.79-76.13 114.13v164c19.78 23.27 46.11 40.79 76.13 49.75z" class="st1"/><path d="M335-202.01c-22.93 15.36-38.05 41.5-38.05 71.11V89.53H335z" class="st8"/><path d="M335-202.01c-22.93 15.36-38.05 41.5-38.05 71.11V65.8A159.7 159.7 0 0 0 335 82.85z" class="st8"/></g></svg>