<svg xmlns="http://www.w3.org/2000/svg" viewBox="0 0 335 335"><defs><clipPath id="clippath"><path d="M362.74 0h335v335h-335z" class="st0"/></clipPath><clipPath id="clippath-1"><path d="M0 0h335v335H0z" class="st0"/></clipPath><style>.st0{fill:none}.st1{fill:#ee3d33}.st2{mix-blend-mode:multiply;opacity:.15}.st5{fill:#34cbc2}.st6{fill:#00308c}.st7{fill:#fac813}.st8{fill:#12aee7}.st10{fill:#600040}</style></defs><g style="isolation:isolate"><g id="Layer_1"><g id="block_E" style="clip-path:url(#clippath)"><path d="M179.05 0h518.69v258.81H179.05z"/><path d="M180.13 258.81C180.13 115.87 296 0 438.94 0s258.81 115.87 258.81 258.81z" class="st8"/><path d="M180.13 258.81C180.13 115.87 296 0 438.94 0s258.81 115.87 258.81 258.81z" class="st2"/><path d="M180.13 258.81c0-123.97 100.5-224.47 224.47-224.47s224.47 100.5 224.47 224.47z" class="st5"/><path d="M180.13 258.81c0-105.64 85.64-191.28 191.28-191.28s191.28 85.64 191.28 191.28z" class="st8"/><path d="M180.13 258.81c0-105.64 85.64-191.28 191.28-191.28s191.28 85.64 191.28 191.28z" class="st2"/><path d="M180.13 258.81c0-87.58 71-158.57 158.57-158.57s158.57 71 158.57 158.57z" class="st6"/></g><g id="block_D" style="clip-path:url(#clippath-1)"><path d="M98.56 0h53.83v258.81H98.56z" class="st10"/><path d="M98.56 147.44h52.75v111.37H98.56z" class="st8"/><path d="M151.31 0H670v258.81H151.31z"/><path d="M98.56 147.44v-20.97c0-29.13 23.62-52.75 52.75-52.75s52.75 23.62 52.75 52.75v20.97z" class="st1"/><path d="M204.06 126.47v20.97h-52.75V73.72c29.13 0 52.75 23.62 52.75 52.75" class="st10"/><path d="M152.38 258.81C152.38 115.87 268.26 0 411.19 0S670 115.87 670 258.81z" class="st8"/><path d="M152.38 258.81C152.38 115.87 268.26 0 411.19 0S670 115.87 670 258.81z" class="st2"/><path d="M152.38 258.81c0-123.97 100.5-224.47 224.47-224.47s224.47 100.5 224.47 224.47z" class="st5"/><path d="M152.38 258.81c0-105.64 85.64-191.28 191.28-191.28s191.28 85.64 191.28 191.28z" class="st8"/><path d="M152.38 258.81c0-105.64 85.64-191.28 191.28-191.28s191.28 85.64 191.28 191.28z" class="st2"/><path d="M152.38 258.81c0-87.58 71-158.57 158.57-158.57s158.57 71 158.57 158.57z" class="st6"/><path d="M325.21 258.81h172.83V335H325.21z" class="st10"/><path d="M335 335H151.31v-76.19H335z" class="st7"/><path d="M98.56 258.81h52.75V335H98.56z" class="st1"/><path d="M0 200.74h98.58V335H0z" class="st6"/><path d="M0 0h98.58v147.44H0z" class="st7"/><path d="M0 186.89v98.83C0 312.93 22.07 335 49.29 335s49.29-22.07 49.29-49.29v-98.83H0Z" class="st8"/><path d="M0 147.44v85.65c0 27.22 22.07 49.29 49.29 49.29s49.29-22.07 49.29-49.29v-85.65z" class="st5"/><path d="M98.56 0v20.97c0 29.13 23.62 52.75 52.75 52.75s52.75-23.62 52.75-52.75V0z" class="st1"/><path d="M204.06 20.97V0h-52.75v73.72c29.13 0 52.75-23.62 52.75-52.75" class="st10"/></g></g></g></svg>