<svg xmlns="http://www.w3.org/2000/svg" viewBox="0 0 335 335"><defs><clipPath id="clippath"><path d="M0 0h335v335H0z" class="st0"/></clipPath><clipPath id="clippath-1"><path d="M-362.74 0h335v335h-335z" class="st0"/></clipPath><style>.st0{fill:none}.st1{fill:#ee3d33}.st2{mix-blend-mode:multiply;opacity:.15}.st5{fill:#34cbc2}.st6{fill:#00308c}.st7{fill:#12aee7}.st9{fill:#600040}</style></defs><g style="isolation:isolate"><g id="Layer_1"><g id="block_E" style="clip-path:url(#clippath)"><path d="M-183.69 0H335v258.81h-518.69z"/><path d="M-182.62 258.81C-182.62 115.87-66.74 0 76.19 0S335 115.87 335 258.81z" class="st7"/><path d="M-182.62 258.81C-182.62 115.87-66.74 0 76.19 0S335 115.87 335 258.81z" class="st2"/><path d="M-182.62 258.81c0-123.97 100.5-224.47 224.47-224.47s224.47 100.5 224.47 224.47z" class="st5"/><path d="M-182.62 258.81c0-105.64 85.64-191.28 191.28-191.28s191.28 85.64 191.28 191.28z" class="st7"/><path d="M-182.62 258.81c0-105.64 85.64-191.28 191.28-191.28s191.28 85.64 191.28 191.28z" class="st2"/><path d="M-182.62 258.81c0-87.58 71-158.57 158.57-158.57s158.57 71 158.57 158.57z" class="st6"/><path d="M335 335H163.05v-76.19H335z"/><path d="M199.95 335h-36.91v-76.19h36.91z" class="st6"/><path d="M-9.79 258.81h172.83V335H-9.79z" class="st9"/><path d="M199.95 258.81h66.37V335h-66.37z" class="st5"/><path d="M163.05 258.81h-43.43c-21.04 0-38.1 17.06-38.1 38.1s17.06 38.1 38.1 38.1h43.43v-76.19Z" class="st1"/><path d="M0 258.81h43.43c21.04 0 38.1 17.06 38.1 38.1s-17.06 38.1-38.1 38.1H0v-76.19Z" class="st1"/><path d="M0 258.81h163.05V14.95C135.9 5.28 106.66 0 76.19 0 49.67 0 24.09 4.01 0 11.42z" class="st5"/><path d="M163.05 14.95V258.8H335c0-112.47-71.74-208.16-171.95-243.85" class="st6"/><path d="M0 38.27v220.54h163.05V69.84c-34.96-22.47-76.55-35.5-121.19-35.5-14.31 0-28.29 1.37-41.85 3.93Z" class="st5"/><path d="M0 38.27v220.54h163.05V69.84c-34.96-22.47-76.55-35.5-121.19-35.5-14.31 0-28.29 1.37-41.85 3.93Z" class="st2"/><path d="M163.05 69.84v188.97h103.28c0-79.33-41.15-149.05-103.28-188.97" class="st7"/><path d="M163.05 69.84v188.97h103.28c0-79.33-41.15-149.05-103.28-188.97" class="st2"/><path d="M8.67 67.52c-2.91 0-5.79.07-8.67.2V258.8h163.05V145.85C128.24 98.37 72.06 67.52 8.67 67.52" class="st5"/><path d="M163.05 258.81h36.91c0-42.25-13.71-81.29-36.91-112.95z" class="st7"/><path d="M0 258.81h134.53c0-79.4-58.36-145.15-134.53-156.74z" class="st5"/><path d="M0 258.81h134.53c0-79.4-58.36-145.15-134.53-156.74z" class="st2"/></g><g id="block_D" style="clip-path:url(#clippath-1)"><path d="M-211.43 0h518.69v258.81h-518.69z"/><path d="M-210.36 258.81C-210.36 115.87-94.49 0 48.45 0s258.81 115.87 258.81 258.81z" class="st7"/><path d="M-210.36 258.81C-210.36 115.87-94.49 0 48.45 0s258.81 115.87 258.81 258.81z" class="st2"/><path d="M-210.36 258.81c0-123.97 100.5-224.47 224.47-224.47s224.47 100.5 224.47 224.47z" class="st5"/><path d="M-210.36 258.81c0-105.64 85.64-191.28 191.28-191.28S172.2 153.17 172.2 258.81z" class="st7"/><path d="M-210.36 258.81c0-105.64 85.64-191.28 191.28-191.28S172.2 153.17 172.2 258.81z" class="st2"/><path d="M-210.36 258.81c0-87.58 71-158.57 158.57-158.57s158.57 71 158.57 158.57z" class="st6"/><path d="M-37.53 258.81H135.3V335H-37.53z" class="st9"/></g></g></g></svg>