<svg xmlns="http://www.w3.org/2000/svg" viewBox="0 0 335 335"><defs><clipPath id="clippath"><path d="M0 0h335v335H0z" style="fill:none"/></clipPath><style>.st2{mix-blend-mode:multiply;opacity:.15}.st4{fill:#34cbc2}.st5{fill:#00308c}.st6{fill:#12aee7}</style></defs><g style="isolation:isolate"><g id="Layer_1"><g id="block_A" style="clip-path:url(#clippath)"><path d="M45.81 0h578.38v335H45.81z" style="fill:#ee3d33"/><path d="M71.19 0H0v100.43l45.81 32.08L335 335 100.43 0z" class="st5"/><path d="M100.43 0 335 335 213.07 0z" class="st6"/><path d="M213.07 0 335 335V0z" class="st5"/><path d="M45.81 257.51 335 335 45.81 132.51z" class="st6"/><path d="M100.43 0 335 335 213.07 0z" class="st2"/><path d="M331.85 332.79 0 100.43v144.81L335 335z" class="st6"/><path d="M331.85 332.79 0 100.43v144.81L335 335z" class="st2"/><path d="M0 335h335L0 245.24z" class="st5"/><path d="M169.19 98.2 335 335 236.09 63.24c-23.93 8.74-46.38 20.56-66.9 34.96" class="st4"/><path d="M98.2 169.19 335 335 169.19 98.2a291.9 291.9 0 0 0-70.99 70.99M335 45.81c-34.73 0-68.04 6.16-98.91 17.43L335 335z" class="st4"/><path d="M55.65 260.15 335 335 98.2 169.19c-19.14 27.26-33.7 57.95-42.55 90.96" class="st4"/><path d="M45.81 335H335L55.65 260.15c-6.41 23.89-9.84 48.97-9.84 74.85" class="st4"/><path d="M98.2 169.19 335 335 169.19 98.2a291.9 291.9 0 0 0-70.99 70.99M335 45.81c-34.73 0-68.04 6.16-98.91 17.43L335 335zM45.81 335H335L55.65 260.15c-6.41 23.89-9.84 48.97-9.84 74.85" class="st2"/><path d="M335 335V98.56c-28.41 0-55.65 5.02-80.89 14.2zm-236.44 0H335l-228.42-61.21c-5.22 19.52-8.02 40.04-8.02 61.21" class="st5"/><path d="m335 335-80.89-222.24a235.6 235.6 0 0 0-54.73 28.55zM141.31 199.38c-15.64 22.29-27.52 47.4-34.74 74.41L334.99 335 141.3 199.38Z" class="st6"/><path d="M335 335 199.38 141.31a237.6 237.6 0 0 0-58.07 58.07z" class="st5"/><path d="M184.59 229.68 335 335 229.68 184.59a185.3 185.3 0 0 0-45.09 45.09" class="st4"/><path d="M229.68 184.59 335 335l-62.83-172.62a183.4 183.4 0 0 0-42.49 22.21" class="st4"/><path d="M335 151.31c-22.06 0-43.22 3.91-62.83 11.07L335 335zM157.56 287.46 335 335 184.59 229.68a183.1 183.1 0 0 0-27.03 57.78" class="st4"/><path d="M151.31 335H335l-177.44-47.54a183.3 183.3 0 0 0-6.25 47.54" class="st4"/><path d="M184.59 229.68 335 335 229.68 184.59a185.3 185.3 0 0 0-45.09 45.09" class="st2"/><path d="M229.68 184.59 335 335l-62.83-172.62a183.4 183.4 0 0 0-42.49 22.21M151.31 335H335l-177.44-47.54a183.3 183.3 0 0 0-6.25 47.54" class="st2"/><path d="M227.78 259.92 335 335l-75.08-107.22a132 132 0 0 0-32.14 32.14" class="st6"/><path d="M259.92 227.78 335 335l-44.79-123.05c-10.83 3.96-21 9.31-30.29 15.83m-51.4 73.33L335 335l-107.22-75.08a130.5 130.5 0 0 0-19.27 41.18Z" class="st6"/><path d="M335 204.06c-15.72 0-30.81 2.79-44.79 7.89L335 335z" class="st6"/><path d="M208.52 301.11 335 335l-107.22-75.08a130.5 130.5 0 0 0-19.27 41.18ZM335 204.06c-15.72 0-30.81 2.79-44.79 7.89L335 335z" class="st2"/><path d="M204.06 335H335l-126.48-33.89c-2.9 10.81-4.46 22.17-4.46 33.89" class="st6"/><path d="M290.18 270.99 335 335l-26.74-73.48c-6.47 2.36-12.53 5.57-18.08 9.47" class="st5"/><path d="M270.99 290.18 335 335l-44.82-64.01a79 79 0 0 0-19.19 19.19" class="st5"/><path d="M259.48 314.76 335 335l-64.01-44.82a77.7 77.7 0 0 0-11.51 24.59ZM335 256.81c-9.39 0-18.4 1.67-26.74 4.71L335 335z" class="st5"/><path d="M256.81 335H335l-75.52-20.24a78 78 0 0 0-2.67 20.24" class="st5"/></g></g></g></svg>