<svg xmlns="http://www.w3.org/2000/svg" viewBox="0 0 335 335"><defs><clipPath id="clippath"><path d="M0 365.72h335v335H0z" class="st0"/></clipPath><clipPath id="clippath-1"><path d="M0 0h335v335H0z" class="st0"/></clipPath><clipPath id="clippath-2"><path d="M-361.75 0h335v335h-335z" class="st0"/></clipPath><style>.st0{fill:none}.st1{fill:#ee3d33}.st6{fill:#00308c}.st7{fill:#fac813}.st8{fill:#12aee7}.st10{fill:#600040}</style></defs><g style="isolation:isolate"><g id="Layer_1"><g id="block_F" style="clip-path:url(#clippath)"><path d="M220.92 408.63v-92.9c0-25.59-20.74-46.33-46.33-46.33s-46.33 20.74-46.33 46.33v92.9z" class="st7"/><path d="M220.79 194.89v265.57H335V30.72h-19.73c-55.42 33.72-92.51 94.69-94.48 164.17"/><path d="M220.79 460.46v-94.74c1.97-26.1-19.19-47.25-45.28-47.25s-47.25 21.16-47.25 47.25v94.74z" class="st1"/><path d="M335 151.4c-44.66 18.66-76.13 62.79-76.13 114.13v220.42H335z" class="st8"/><path d="M335 151.4c-44.66 18.66-76.13 62.79-76.13 114.13v163.99c19.78 23.27 46.11 40.79 76.13 49.75z" class="st1"/><path d="M335 194.42c-22.93 15.36-38.05 41.5-38.05 71.11v220.42H335z" class="st10"/><path d="M335 194.42c-22.93 15.36-38.05 41.5-38.05 71.11v196.69A159.7 159.7 0 0 0 335 479.27z" class="st10"/></g><g id="block_C" style="clip-path:url(#clippath-1)"><path d="M83.64 63.24h205.08v232.67H83.64z" class="st10"/><path d="M220.92 377.91v-92.9c0-25.59-20.74-46.33-46.33-46.33s-46.33 20.74-46.33 46.33v92.9z" class="st7"/><path d="M220.79 164.17v265.57H335V0h-19.73c-55.42 33.72-92.51 94.69-94.48 164.17"/><path d="M220.79 164.17v92.64H335V0h-19.73c-55.42 33.72-92.51 94.69-94.48 164.17" class="st10"/><path d="M335 40.76c-87.3 21.37-152.28 100.26-152.28 194.06V335H335z"/><path d="M0 0v335L335 0z" class="st6"/><path d="M128.26 335H0l128.26-128.26z"/><path d="M0 0v335L335 0z" style="mix-blend-mode:multiply;opacity:.15"/><path d="M128.26 0H0v335l128.26-128.26z" class="st6"/><path d="M0 206.74V335l128.26-128.26z" class="st8"/><path d="M220.79 429.74V335c1.97-26.1-19.19-47.25-45.28-47.25s-47.25 21.16-47.25 47.25v94.74z" class="st1"/><path d="M335 120.69c-44.66 18.66-76.13 62.79-76.13 114.13v220.42H335z" class="st8"/><path d="M335 120.69c-44.66 18.66-76.13 62.79-76.13 114.13v163.99c19.78 23.27 46.11 40.79 76.13 49.75z" class="st1"/><path d="M335 80.24c-66.06 20.34-114.21 81.94-114.21 154.58V335H335z" class="st1"/><path d="M335 335V120.69c-44.66 18.66-76.13 62.79-76.13 114.13V335z" class="st8"/><path d="M335 163.71c-22.93 15.36-38.05 41.5-38.05 71.11v220.42H335z" class="st10"/><path d="M335 163.71c-22.93 15.36-38.05 41.5-38.05 71.11v196.69A159.7 159.7 0 0 0 335 448.56z" class="st10"/></g><path id="block_B" d="M-361.75 335h490.01L84.37 215.86zM3.1-40.78l-67.02-14.99-23.43-1.63-274.4 392.4L101.81 8.8 82.92-6.18z" class="st1" style="clip-path:url(#clippath-2)"/></g></g></svg>