<svg xmlns="http://www.w3.org/2000/svg" id="Layer_1" viewBox="0 0 335 335"><defs><clipPath id="clippath"><path d="M0 0h335v335H0z" class="st0"/></clipPath><clipPath id="clippath-1"><path d="M-362.74 0h335v335h-335z" class="st0"/></clipPath><style>.st0{fill:none}.st1{fill:#ee3d33}.st7{fill:#600040}</style></defs><g id="block_B" style="clip-path:url(#clippath)"><path d="M-1.16 0H335v335H-1.16z" style="fill:#fac813"/><path d="M0 335h490.01l-43.88-119.14zM364.85-40.78l-67.02-14.99-23.43-1.63L0 335 463.56 8.8 444.67-6.18z" class="st1"/><path d="M228.38 273.81h.04c-.28-1.07-.58-2.11-.88-3.16h.01a17 17 0 0 0-.23-.77c-.31-1.08-.63-2.15-.95-3.22-.17-.55-.33-1.11-.5-1.66-.39-1.24-.78-2.48-1.19-3.72l-.24-.75c-.05-.17-.11-.33-.17-.49-.37-1.12-.76-2.23-1.15-3.35-.09-.27-.18-.54-.28-.81-.08-.21-.16-.43-.23-.64q-.57-1.59-1.17-3.18c-.1-.28-.2-.56-.31-.83-.09-.24-.19-.48-.28-.72-.39-1.01-.78-2.02-1.18-3.02l-.33-.84c-.11-.27-.22-.54-.34-.81-.39-.96-.79-1.92-1.19-2.88-.11-.27-.23-.55-.35-.82l-.39-.9c-.4-.92-.8-1.84-1.21-2.76-.11-.26-.23-.52-.35-.77-.15-.33-.3-.66-.45-.98-.41-.9-.82-1.8-1.25-2.69-.11-.23-.21-.46-.32-.68l-.51-1.05c-.43-.89-.86-1.79-1.3-2.67-.09-.19-.18-.37-.28-.56-.18-.35-.36-.71-.54-1.06-.49-.96-.97-1.92-1.47-2.87l-.03-.06c-.03-.06-.06-.12-.1-.18-.24-.45-.49-.9-.73-1.36a298 298 0 0 0-3.63-6.55c-.36-.63-.74-1.25-1.1-1.87-.45-.77-.91-1.54-1.37-2.3l-1.11-1.8c-.48-.78-.96-1.56-1.45-2.33l-1.11-1.74c-.51-.79-1.03-1.58-1.55-2.36-.37-.55-.73-1.1-1.1-1.65-.55-.82-1.11-1.63-1.67-2.44-.25-.36-.49-.72-.74-1.08l.03-.02a231 231 0 0 0-8.29-11.11c-.15-.19-.3-.37-.45-.55-.19-.25-.38-.49-.58-.74-.36-.45-.73-.89-1.09-1.33-.49-.6-.98-1.19-1.47-1.79-.24-.29-.47-.58-.71-.86-.48-.57-.96-1.13-1.45-1.7-.54-.63-1.08-1.27-1.63-1.89l-.48-.54c-.33-.38-.67-.75-1-1.13l-.48-.54-1.29-1.44c-.44-.48-.89-.96-1.34-1.44-.32-.34-.63-.69-.95-1.03l-.01-.01c-.33-.35-.66-.71-1-1.06-.87-.91-1.74-1.82-2.62-2.71l-.2-.2c-.09-.09-.18-.19-.27-.28-.28-.28-.55-.56-.82-.84-.2-.2-.4-.39-.6-.59-.42-.42-.84-.83-1.26-1.24l-.5-.5c-.15-.14-.29-.28-.44-.42a3 3 0 0 0-.19-.18c-.33-.32-.66-.65-.99-.97-.21-.2-.41-.41-.62-.61h-.01c-.22-.2-.45-.4-.67-.61-.23-.21-.45-.42-.68-.63-.18-.17-.38-.34-.56-.51-1.24-1.15-2.5-2.29-3.76-3.42-2.56-2.29-5.15-4.54-7.82-6.72l-.03.03c-.13-.11-.26-.21-.39-.31-1.61-1.31-3.24-2.6-4.88-3.86-.09-.07-.18-.14-.28-.21-1.49-1.14-2.99-2.26-4.51-3.36-.43-.31-.85-.62-1.28-.93-1.45-1.04-2.92-2.08-4.39-3.09-.14-.1-.29-.2-.43-.3-.08-.05-.16-.11-.23-.16-.02-.01-.03-.02-.05-.03-.2-.14-.4-.27-.6-.4l-2.01-1.35-.64-.43c-.98-.65-1.97-1.28-2.96-1.91l.02-.03c-6.11-3.89-12.38-7.45-18.75-10.72-.14-.07-.28-.15-.42-.22-.36-.18-.72-.36-1.09-.55-.71-.36-1.42-.73-2.13-1.09-.35-.17-.7-.35-1.05-.52-.25-.12-.51-.24-.76-.36-.54-.26-1.07-.51-1.61-.76-.25-.12-.49-.24-.74-.36-.18-.08-.36-.16-.54-.25a1 1 0 0 1-.14-.07c-.42-.2-.83-.4-1.25-.59-.26-.12-.52-.25-.78-.37q-.42-.165-.84-.36c-.28-.13-.57-.25-.85-.38-.58-.26-1.17-.51-1.75-.76-.37-.16-.73-.33-1.1-.49-.19-.08-.38-.16-.58-.24-.34-.14-.67-.28-1.01-.42-.23-.1-.45-.19-.68-.29l-.3-.12c-1.7-.71-3.4-1.4-5.11-2.06-.19-.08-.38-.16-.57-.23-1.29-.49-2.58-.98-3.88-1.45-4.33-1.57-8.71-3.03-13.15-4.36l-.02.05c-4.25-1.27-8.53-2.42-12.83-3.44-1.1-.26-2.2-.51-3.3-.76-.22-.05-.44-.1-.67-.15-1.03-.23-2.05-.44-3.08-.66-1.28-.27-2.55-.52-3.84-.76-1.19-.23-2.39-.44-3.59-.65-1.33-.23-2.67-.46-4.01-.66-1.33-.21-2.66-.41-3.99-.59-1.18-.16-2.37-.32-3.55-.47-1.54-.19-3.08-.37-4.62-.53-.96-.1-1.93-.19-2.89-.28-1.67-.15-3.35-.29-5.03-.41-.82-.06-1.63-.11-2.45-.15q-2.79-.165-5.58-.27c-.29-.01-.58-.03-.86-.04v.02c-5.98-.19-11.98-.16-18 .11L0 335l235.84 17.35c1.99-26.77-.67-53.29-7.46-78.54" style="fill:#00308c"/><path d="m0 335 193.69-135.62a237.6 237.6 0 0 0-58.07-58.07z" class="st7"/><path d="M-.4-193.35 0 45.81V335l183.77-505.46z" class="st1"/><path d="m0 335 80.89-222.24C55.65 103.57 28.41 98.56 0 98.56zm228.42-61.21L0 335h236.44c0-21.17-2.8-41.68-8.02-61.21" class="st7"/><path d="M0 335h183.69c0-16.44-2.18-32.37-6.25-47.54z" class="st1"/><path d="M105.32 184.59 0 335l150.41-105.32a185.3 185.3 0 0 0-45.09-45.09" class="st7"/><path d="M150.41 229.68 0 335l177.44-47.54c-5.62-20.97-14.87-40.46-27.03-57.77Zm-87.58-67.3L0 335l105.32-150.41a183.4 183.4 0 0 0-42.49-22.21" class="st1"/><path d="M0 204.06V335l44.79-123.05c-13.98-5.1-29.07-7.89-44.79-7.89m75.12 23.69L0 335l107.28-75.09c-8.52-12.2-19.28-23.14-32.15-32.16Z" class="st1"/><path d="M126.48 301.11c-4-14.91-10.57-28.79-19.21-41.11L0 335h130.94c0-11.72-1.56-23.08-4.46-33.89m-81.69-89.16L0 335l75.08-107.22a131 131 0 0 0-30.29-15.83" style="opacity:.15;fill:#fac813"/><path d="M75.52 314.76a77.8 77.8 0 0 0-11.51-24.59 79 79 0 0 0-19.19-19.19c-5.55-3.9-11.61-7.1-18.08-9.47A77.8 77.8 0 0 0 0 256.8v78.19h78.19c0-7-.94-13.78-2.67-20.24Z" class="st1"/></g><path id="block_A" d="M-316.93 0h578.38v335h-578.38z" class="st1" style="clip-path:url(#clippath-1)"/></svg>